<?xml version="1.0" standalone="no"?>
<!DOCTYPE svg PUBLIC "-//W3C//DTD SVG 1.1//EN" "http://www.w3.org/Graphics/SVG/1.1/DTD/svg11.dtd">
<svg xmlns="http://www.w3.org/2000/svg" version="1.2" viewBox="0 0 2560 860" width="2560" height="860">
	<style>
		.s0 { stroke: #ffffff;stroke-width: 20;stroke-linejoin: round;;fill: #ffffff } 
	</style>
	<path id="Apollaris" class="s0" aria-label="Apollaris" d="m566.2 205q2.4 8.4 3.2 18.2 1.6 9.8 1.6 20.3 0 26.6-8 61.6-8 35-23.9 79.1l-60.7 161.7h-83l37.5-100.1h-178.7q-0.8 12.6 0 25.2 1.6 12.6 3.2 25.9 1.6 9.8 4 20.3 3.1 10.5 5.5 20.3 4 11.9 8 23.8 4 11.9 8 23.8 0.8 3.5 1.6 7 1.6 2.8 2.4 5.6l-75.8 20.3q-8.8-26.6-17.6-53.9-8-28-13.5-56-1.6-7.7-3.2-15.4-0.8-7.7-1.6-16.1-0.8-7.7-1.6-15.4 0-7.7 0-15.4h-91l25.5-70h77.4q15.2-49 41.5-90.3 26.4-42 58.3-73.5 24.7-23.8 51.1-40.6 27.1-17.5 55-27.3 16-5.6 32-8.4 15.9-3.5 31.1-3.5 44.7 0 72.6 16.8 28.7 16.8 39.1 56zm-75.8 16.1q-3.2-10.5-12.8-14.7-8.8-4.9-23.1-4.9-16 0-35.1 7-18.4 7-37.5 19.6-9.6 6.3-19.2 14-8.8 7.7-18.4 16.8-27.1 25.9-47 55.3-19.2 29.4-30.4 61.6h191.6l4.8-12.6q15.9-41.3 22.3-70.7 7.2-30.1 7.2-51.1 0-5.6-0.8-10.5 0-5.6-1.6-9.8zm456.4 256.2l-25.6 69.3h-237v-69.3h51.9q5.6 0 11.2-0.7 5.6-1.4 11.2-2.8 23.9-7.7 43-25.2 20-18.2 20-38.5 0-11.2-8-15.4-8-4.9-19.1-4.9-16 0-35.9 11.2-20 10.5-40.7 29.4-1.6 2.1-4 4.9-2.4 2.1-4.8 4.2-23.2 23.8-44.7 55.3-21.6 30.8-35.1 66.5l-67.1 182.7-75-21.7 89.4-242.2q10.4-28.7 14.4-51.1 4-22.4 4-39.9 0-13.3-1.6-23.8-1.6-11.2-4-19.6-0.8-2.8-1.6-5.6 0-2.8-0.8-4.9-0.8-3.5-1.6-4.2 0-1.4-0.8-2.1l77.4-14.7q1.6 3.5 1.6 4.9 0 0.7 0 0.7 0.8 3.5 1.6 7 0.8 3.5 1.6 7.7 2.4 7.7 4 17.5 1.6 9.1 2.4 20.3 25.5-21.7 56.6-36.4 31.9-15.4 66.3-15.4 8.7 0 17.5 1.4 8.8 0.7 17.6 3.5 31.9 9.1 50.2 32.2 19.2 23.1 19.2 52.5 0 17.5-7.2 35-6.4 16.8-17.5 32.2zm311.4-102.9l-26.4 71.4h-38.3q-10.3 40.6-49.4 70.7-38.3 30.1-87.8 30.1-2.4 0-4.8 0-1.6 0-4-0.7-2.4 0-4.8 0-1.6-0.7-4-0.7-43.9-5.6-71-34.3-26.3-29.4-26.3-67.9 0-49.7 41.5-88.2 41.5-39.2 99.7-39.2 35.1 0 62.3 16.1 27.9 16.1 41.5 42.7zm-150.1 70q-20.7-3.5-35.9-17.5-14.3-14-16.7-33.6-12.8 7-21.6 18.9-8.8 11.2-11.2 23.8 0 0.7 0 2.1 0 0.7 0 1.4-0.8 0.7-0.8 2.1 0 0.7 0 1.4 0.8 12.6 8.8 22.4 8.8 9.8 25.6 9.8 15.9 0 29.5-9.1 14.4-9.1 22.3-21.7zm339.1-328.3l-134.1 361.2h79l-25.5 69.3h-71q-29.6 0-47.9-16.8-18.4-17.5-18.4-40.6 0-2.8 0-4.9 0.8-2.8 0.8-5.6 0.8-2.1 1.6-4.2 0.8-2.8 1.6-5.6l130.9-352.8zm165 0l-134.1 361.2h79l-25.5 69.3h-71q-29.6 0-47.9-16.8-18.4-17.5-18.4-40.6 0-2.8 0-4.9 0.8-2.8 0.8-5.6 0.8-2.1 1.6-4.2 0.8-2.8 1.6-5.6l130.9-352.8zm247.2 361.2l-25.5 69.3h-77.4q-12.8 0-23.2-3.5-10.4-3.5-19.1-9.1-12 6.3-26.4 10.5-13.5 4.2-27.1 5.6-4.8 0.7-9.6 1.4-4.8 0-9.6 0-24.7 0-47-9.8-21.6-9.8-34.4-31.5-4.7-9.1-7.1-17.5-2.4-9.1-2.4-18.2 0-18.2 7.9-35 8-17.5 20.8-32.2 39.9-46.9 98.9-65.8 59.9-19.6 123.7-21 2.4 0 4.8 0 3.2 0 6.4 0v69.3q-25.5 0-51.1 2.8-24.7 2.8-47.8 10.5-20.8 6.3-39.1 17.5-18.4 11.2-32 27.3-0.8 1.4-2.4 3.5-1.6 2.1-3.1 4.9-1.6 2.1-3.2 4.2-0.8 2.1-2.4 4.9-0.8 2.1-1.6 4.9-0.8 2.8-0.8 4.9 0 2.8 2.4 5.6 2.4 2.1 7.9 2.1 31.2 0 46.3-18.2 15.2-18.2 24-39.9 1.6-4.9 3.2-9.1 1.6-4.2 3.2-8.4l75 21.7-17.6 48.3zm257.1-87.5h-30.3q-4.8 2.8-14.4 11.2-9.6 8.4-19.9 18.9-3.2 2.8-6.4 6.3-3.2 3.5-6.4 6.3-10.4 11.9-17.6 22.4-7.1 9.8-7.1 16.1 0.8 2.8 2.3 4.9 2.4 1.4 7.2 1.4h89.4l-25.5 69.3q-5.6 0-14.4 0-8 0-17.5 0-9.6 0-18.4 0-8 0-13.6 0-24.7 0-46.3-9.8-20.7-9.8-32.7-29.4-2.4-4.2-4-8.4-1.6-4.2-2.4-9.1-1.6-4.2-2.3-8.4 0-4.2 0-8.4 0-22.4 11.1-43.4 11.2-21.7 26.4-39.9h-12.8q-2.4 0-4.8 0.7-1.6 0-4 0.7-8 2.1-15.2 8.4-7.1 5.6-10.3 11.9-0.8 0.7-1.6 2.1 0 0.7 0 1.4l-6.4 16.1-75-21.7 43.9-120.4 75.8 21.7-4 9.1h157.2zm167.5 87.5l-25.6 69.3h-71.8q-29.5 0-47.9-16.8-18.3-17.5-18.3-40.6 0-2.8 0-4.9 0.8-2.8 0.8-5.6 0.8-2.1 1.6-4.2 0.8-2.8 1.6-5.6l54.2-149.1h83.8l-57.4 157.5zm19.9-263.2q0 19.6-15.9 34.3-15.2 14-38.3 14-22.4 0-38.3-14-16-14.7-16-34.3 0-19.6 16-33.6 15.9-14 38.3-14 23.1 0 38.3 14 15.9 14 15.9 33.6zm172.4 226.8q0 46.9-32.7 76.3-32.8 29.4-87 29.4h-80.6l25.5-69.3h55.1q20.7 0 30.3-8.4 10.4-9.1 10.4-28 0-9.8-2.4-18.2-2.4-9.1-6.4-16.1-15.2 18.2-26.3 31.5-10.4 12.6-10.4 13.3l-63.8-40.6q0 0 16.7-21 17.6-21 39.1-46.2 20-25.2 37.5-46.2 17.6-21 17.6-21.7l71 30.8q-0.8 0.7-9.6 11.9-8.8 11.2-22.3 27.3 18.3 19.6 27.9 44.8 10.4 24.5 10.4 50.4z"/>
</svg>